<svg width="24" height="24" viewBox="0 0 24 24" fill="none" xmlns="http://www.w3.org/2000/svg">
<path fill-rule="evenodd" clip-rule="evenodd" d="M3 12C3 7.02944 7.02944 3 12 3C16.9706 3 21 7.02944 21 12C21 16.9706 16.9706 21 12 21C7.02944 21 3 16.9706 3 12ZM12 1C5.92487 1 1 5.92487 1 12C1 18.0751 5.92487 23 12 23C18.0751 23 23 18.0751 23 12C23 5.92487 18.0751 1 12 1ZM7.9886 14.0419C7.73758 13.5499 7.13529 13.3546 6.64335 13.6056C6.15141 13.8567 5.9561 14.4589 6.20712 14.9509C7.28095 17.0554 9.4709 18.5 12 18.5C14.5253 18.5 16.7126 17.0596 17.7881 14.9603C18.0399 14.4687 17.8456 13.8661 17.354 13.6143C16.8625 13.3625 16.2599 13.5568 16.0081 14.0484C15.2613 15.506 13.7459 16.5 12 16.5C10.2515 16.5 8.73416 15.503 7.9886 14.0419ZM10 9.5C10 10.3284 9.44036 11 8.75 11C8.05964 11 7.5 10.3284 7.5 9.5C7.5 8.67157 8.05964 8 8.75 8C9.44036 8 10 8.67157 10 9.5ZM15.25 11C15.9404 11 16.5 10.3284 16.5 9.5C16.5 8.67157 15.9404 8 15.25 8C14.5596 8 14 8.67157 14 9.5C14 10.3284 14.5596 11 15.25 11Z" fill="currentColor"/>
</svg>
